<svg xmlns="http://www.w3.org/2000/svg" xmlns:xlink="http://www.w3.org/1999/xlink" viewBox="0 0 1920 1250" width="1920" height="1250" preserveAspectRatio="xMidYMid meet" style="width: 100%; height: 100%; transform: translate3d(0px, 0px, 0px); content-visibility: visible;"><defs><clipPath id="__lottie_element_12"><rect width="1920" height="1250" x="0" y="0"></rect></clipPath><clipPath id="__lottie_element_14"><path d="M0,0 L1920,0 L1920,1250 L0,1250z"></path></clipPath><linearGradient id="__lottie_element_20" spreadMethod="pad" gradientUnits="userSpaceOnUse" x1="-1154.093994140625" y1="0.18199999630451202" x2="-844.1069946289062" y2="0"><stop offset="0%" stop-color="rgb(202,227,200)"></stop><stop offset="50%" stop-color="rgb(201,164,102)"></stop><stop offset="100%" stop-color="rgb(200,102,4)"></stop></linearGradient><linearGradient id="__lottie_element_25" spreadMethod="pad" gradientUnits="userSpaceOnUse" x1="427.75799560546875" y1="0" x2="-371.7959899902344" y2="0"><stop offset="0%" stop-color="rgb(237,18,0)"></stop><stop offset="32%" stop-color="rgb(231,76,0)"></stop><stop offset="65%" stop-color="rgb(225,135,0)"></stop></linearGradient><linearGradient id="__lottie_element_29" spreadMethod="pad" gradientUnits="userSpaceOnUse" x1="-135.302001953125" y1="0" x2="422.7439880371094" y2="0"><stop offset="0%" stop-color="rgb(241,147,7)"></stop><stop offset="50%" stop-color="rgb(245,85,6)"></stop><stop offset="100%" stop-color="rgb(248,23,4)"></stop></linearGradient><linearGradient id="__lottie_element_33" spreadMethod="pad" gradientUnits="userSpaceOnUse" x1="0" y1="-0.8650000095367432" x2="424.55499267578125" y2="19.88599967956543"><stop offset="0%" stop-color="rgb(206,192,140)"></stop><stop offset="52%" stop-color="rgb(189,146,128)"></stop><stop offset="100%" stop-color="rgb(173,99,117)"></stop></linearGradient><linearGradient id="__lottie_element_37" spreadMethod="pad" gradientUnits="userSpaceOnUse" x1="0" y1="-0.8659999966621399" x2="413.1300048828125" y2="-0.8659999966621399"><stop offset="0%" stop-color="rgb(202,227,200)"></stop><stop offset="21%" stop-color="rgb(183,216,207)"></stop><stop offset="42%" stop-color="rgb(165,206,214)"></stop><stop offset="71%" stop-color="rgb(137,184,211)"></stop><stop offset="100%" stop-color="rgb(108,161,208)"></stop></linearGradient><linearGradient id="__lottie_element_41" spreadMethod="pad" gradientUnits="userSpaceOnUse" x1="-17.30699920654297" y1="0" x2="448.6090087890625" y2="0"><stop offset="0%" stop-color="rgb(215,239,214)"></stop><stop offset="34%" stop-color="rgb(165,228,223)"></stop><stop offset="100%" stop-color="rgb(114,217,232)"></stop></linearGradient><linearGradient id="__lottie_element_45" spreadMethod="pad" gradientUnits="userSpaceOnUse" x1="-144.18499755859375" y1="0.46000000834465027" x2="407.39898681640625" y2="0.46000000834465027"><stop offset="0%" stop-color="rgb(206,230,204)"></stop><stop offset="38%" stop-color="rgb(170,219,207)"></stop><stop offset="56%" stop-color="rgb(135,207,210)"></stop><stop offset="78%" stop-color="rgb(124,197,221)"></stop><stop offset="100%" stop-color="rgb(114,186,232)"></stop></linearGradient><clipPath id="__lottie_element_78"><path d="M0,0 L1920,0 L1920,1250 L0,1250z"></path></clipPath><linearGradient id="__lottie_element_84" spreadMethod="pad" gradientUnits="userSpaceOnUse" x1="-1154.093994140625" y1="0.18199999630451202" x2="-844.1069946289062" y2="0"><stop offset="0%" stop-color="rgb(202,227,200)"></stop><stop offset="50%" stop-color="rgb(201,164,102)"></stop><stop offset="100%" stop-color="rgb(200,102,4)"></stop></linearGradient><linearGradient id="__lottie_element_89" spreadMethod="pad" gradientUnits="userSpaceOnUse" x1="427.75799560546875" y1="0" x2="-371.7959899902344" y2="0"><stop offset="0%" stop-color="rgb(237,18,0)"></stop><stop offset="32%" stop-color="rgb(231,76,0)"></stop><stop offset="65%" stop-color="rgb(225,135,0)"></stop></linearGradient><linearGradient id="__lottie_element_93" spreadMethod="pad" gradientUnits="userSpaceOnUse" x1="-135.302001953125" y1="0" x2="422.7439880371094" y2="0"><stop offset="0%" stop-color="rgb(241,147,7)"></stop><stop offset="50%" stop-color="rgb(245,85,6)"></stop><stop offset="100%" stop-color="rgb(248,23,4)"></stop></linearGradient><linearGradient id="__lottie_element_97" spreadMethod="pad" gradientUnits="userSpaceOnUse" x1="0" y1="-0.8650000095367432" x2="424.55499267578125" y2="19.88599967956543"><stop offset="0%" stop-color="rgb(206,192,140)"></stop><stop offset="52%" stop-color="rgb(189,146,128)"></stop><stop offset="100%" stop-color="rgb(173,99,117)"></stop></linearGradient><linearGradient id="__lottie_element_101" spreadMethod="pad" gradientUnits="userSpaceOnUse" x1="0" y1="-0.8659999966621399" x2="413.1300048828125" y2="-0.8659999966621399"><stop offset="0%" stop-color="rgb(202,227,200)"></stop><stop offset="21%" stop-color="rgb(183,216,207)"></stop><stop offset="42%" stop-color="rgb(165,206,214)"></stop><stop offset="71%" stop-color="rgb(137,184,211)"></stop><stop offset="100%" stop-color="rgb(108,161,208)"></stop></linearGradient><linearGradient id="__lottie_element_105" spreadMethod="pad" gradientUnits="userSpaceOnUse" x1="-17.30699920654297" y1="0" x2="448.6090087890625" y2="0"><stop offset="0%" stop-color="rgb(215,239,214)"></stop><stop offset="34%" stop-color="rgb(165,228,223)"></stop><stop offset="100%" stop-color="rgb(114,217,232)"></stop></linearGradient><linearGradient id="__lottie_element_109" spreadMethod="pad" gradientUnits="userSpaceOnUse" x1="-144.18499755859375" y1="0.46000000834465027" x2="407.39898681640625" y2="0.46000000834465027"><stop offset="0%" stop-color="rgb(206,230,204)"></stop><stop offset="38%" stop-color="rgb(170,219,207)"></stop><stop offset="56%" stop-color="rgb(135,207,210)"></stop><stop offset="78%" stop-color="rgb(124,197,221)"></stop><stop offset="100%" stop-color="rgb(114,186,232)"></stop></linearGradient><clipPath id="__lottie_element_111"><path fill="#ffffff" clip-rule="nonzero" d=" M-40.676998138427734,232.3276824951172 C92.78500366210938,408.3094787597656 216.1439971923828,614.4000244140625 464.4570007324219,614.4000244140625 C464.4570007324219,614.4000244140625 464.4570007324219,-614.4000244140625 464.4570007324219,-614.4000244140625 C368.39300537109375,-605.5910034179688 210.82699584960938,-571.6041870117188 -40.676998138427734,-225.66073608398438 C-88.88600158691406,-159.3490753173828 -241.13499450683594,0.6010000109672546 -464.4570007324219,0.6010000109672546 C-355.8089904785156,12.61299991607666 -190.8769989013672,34.2760124206543 -40.676998138427734,232.3276824951172" fill-opacity="1"></path></clipPath><linearGradient id="__lottie_element_113" spreadMethod="pad" gradientUnits="userSpaceOnUse" x1="1000" y1="0" x2="-1000" y2="0"><stop offset="0%" stop-color="rgb(239,255,255)"></stop><stop offset="25%" stop-color="rgb(198,255,254)"></stop><stop offset="50%" stop-color="rgb(156,255,254)"></stop><stop offset="72%" stop-color="rgb(197,255,254)"></stop><stop offset="100%" stop-color="rgb(238,255,255)"></stop></linearGradient><mask id="__lottie_element_115"><path fill="url(#__lottie_element_114)" d=" M1000,-800 C1000,-800 1000,800 1000,800 C1000,800 -1000,800 -1000,800 C-1000,800 -1000,-800 -1000,-800 C-1000,-800 1000,-800 1000,-800z"></path></mask><linearGradient id="__lottie_element_114" spreadMethod="pad" gradientUnits="userSpaceOnUse" x1="1000" y1="0" x2="-1000" y2="0"><stop stop-color="rgb(255,255,255)" offset="0%" stop-opacity="0"></stop><stop stop-color="rgb(255,255,255)" offset="25%" stop-opacity="0.5"></stop><stop stop-color="rgb(255,255,255)" offset="50%" stop-opacity="1"></stop><stop stop-color="rgb(255,255,255)" offset="75%" stop-opacity="0.5"></stop><stop stop-color="rgb(255,255,255)" offset="100%" stop-opacity="0"></stop></linearGradient><clipPath id="__lottie_element_117"><path fill="#ffffff" clip-rule="nonzero" d=" M-40.676998138427734,236.64285278320312 C92.78500366210938,415.9017333984375 216.1439971923828,614.4000244140625 464.4570007324219,614.4000244140625 C464.4570007324219,614.4000244140625 464.4570007324219,-614.4000244140625 464.4570007324219,-614.4000244140625 C368.39300537109375,-605.5910034179688 210.82681274414062,-582.2596435546875 -40.676998138427734,-229.87423706054688 C-88.88600158691406,-162.3277130126953 -241.13499450683594,0.6010000109672546 -464.4570007324219,0.6010000109672546 C-355.8089904785156,12.61299991607666 -190.8769989013672,34.902915954589844 -40.676998138427734,236.64285278320312" fill-opacity="1"></path></clipPath><linearGradient id="__lottie_element_119" spreadMethod="pad" gradientUnits="userSpaceOnUse" x1="1000" y1="0" x2="-1000" y2="0"><stop offset="0%" stop-color="rgb(255,239,239)"></stop><stop offset="25%" stop-color="rgb(255,181,168)"></stop><stop offset="50%" stop-color="rgb(255,122,96)"></stop><stop offset="72%" stop-color="rgb(255,170,157)"></stop><stop offset="100%" stop-color="rgb(255,218,218)"></stop></linearGradient><mask id="__lottie_element_121"><path fill="url(#__lottie_element_120)" d=" M1000,-800 C1000,-800 1000,800 1000,800 C1000,800 -1000,800 -1000,800 C-1000,800 -1000,-800 -1000,-800 C-1000,-800 1000,-800 1000,-800z"></path></mask><linearGradient id="__lottie_element_120" spreadMethod="pad" gradientUnits="userSpaceOnUse" x1="1000" y1="0" x2="-1000" y2="0"><stop stop-color="rgb(255,255,255)" offset="0%" stop-opacity="0"></stop><stop stop-color="rgb(255,255,255)" offset="25%" stop-opacity="0.5"></stop><stop stop-color="rgb(255,255,255)" offset="50%" stop-opacity="1"></stop><stop stop-color="rgb(255,255,255)" offset="75%" stop-opacity="0.5"></stop><stop stop-color="rgb(255,255,255)" offset="100%" stop-opacity="0"></stop></linearGradient></defs><g clip-path="url(#__lottie_element_12)"><g clip-path="url(#__lottie_element_14)" transform="matrix(1,0,0,1,0,0)" opacity="1" style="display: none;"><g transform="matrix(-1,0,0,1,23.92099952697754,606.10400390625)" opacity="1" style="display: block;"><g opacity="1" transform="matrix(1,0,0,1,0,0)"><path stroke="url(#__lottie_element_20)" stroke-linecap="butt" stroke-linejoin="miter" fill-opacity="0" stroke-miterlimit="4" stroke-opacity="1" stroke-width="6.095" d=" M35.145999908447266,19.29400062561035 C35.145999908447266,19.29400062561035 -220.16799926757812,18.895000457763672 -220.16799926757812,18.895000457763672 C-251.7220001220703,18.895000457763672 -259.7569885253906,-3.315999984741211 -268.0580139160156,-18.895000457763672 C-277.95599365234375,-3.5490000247955322 -291.9259948730469,18.895000457763672 -314.16900634765625,18.895000457763672 C-314.16900634765625,18.895000457763672 -460.6789855957031,18.895000457763672 -460.6789855957031,18.895000457763672 C-460.6789855957031,18.895000457763672 -1665.655029296875,19.315000534057617 -1665.655029296875,19.315000534057617"></path></g></g><g transform="matrix(1,0,0,1,1503.0869140625,625)" opacity="1" style="display: block;"><g opacity="1" transform="matrix(1,0,0,1,0,0)"><path fill="url(#__lottie_element_25)" fill-opacity="1" d=" M-40.676998138427734,254.7957000732422 C92.78500366210938,447.8404541015625 216.1439971923828,614.4000244140625 464.4570007324219,614.4000244140625 C464.4570007324219,614.4000244140625 464.4570007324219,-614.4000244140625 464.4570007324219,-614.4000244140625 C368.39300537109375,-605.5910034179688 210.82601928710938,-627.0846557617188 -40.676998138427734,-247.59938049316406 C-88.88600158691406,-174.8581085205078 -241.13499450683594,0.6010000109672546 -464.4570007324219,0.6010000109672546 C-355.8089904785156,12.61299991607666 -190.8769989013672,37.54014587402344 -40.676998138427734,254.7957000732422z"></path></g></g><g transform="matrix(1,0,0,1,1519.5419921875,625)" opacity="1" style="display: block;"><g opacity="1" transform="matrix(1,0,0,1,0,0)"><path fill="url(#__lottie_element_29)" fill-opacity="1" d=" M-39.23500061035156,202.34616088867188 C89.49800109863281,355.6522216796875 208.48500061035156,487.6189880371094 448,487.6189880371094 C448,487.6189880371094 448,-487.6189880371094 448,-487.6189880371094 C355.3399963378906,-480.62799072265625 203.35699462890625,-497.99957275390625 -39.23500061035156,-196.63137817382812 C-85.73600006103516,-138.86402893066406 -232.59100341796875,0.47699999809265137 -448,0.47699999809265137 C-343.2019958496094,10.010000228881836 -184.11300659179688,29.81328582763672 -39.23500061035156,202.34616088867188z"></path></g></g><g transform="matrix(1,0,0,1,1517.716064453125,624.3909912109375)" opacity="1" style="display: block;"><g opacity="1" transform="matrix(1,0,0,1,0,0)"><path fill="url(#__lottie_element_33)" fill-opacity="1" d=" M-39.28900146484375,147.53294372558594 C89.61900329589844,259.3105773925781 208.76800537109375,355.35198974609375 448.6090087890625,355.35198974609375 C448.6090087890625,355.35198974609375 448.6090087890625,-355.35198974609375 448.6090087890625,-355.35198974609375 C355.822998046875,-350.2569885253906 203.63299560546875,-363.09783935546875 -39.28900146484375,-143.3660888671875 C-85.85299682617188,-101.24674224853516 -232.90699768066406,0.34700000286102295 -448.6090087890625,0.34700000286102295 C-343.6679992675781,7.294000148773193 -184.36399841308594,21.736528396606445 -39.28900146484375,147.53294372558594z"></path></g></g><g transform="matrix(1,0,0,1,1517.716064453125,628.0479736328125)" opacity="1" style="display: block;"><g opacity="1" transform="matrix(1,0,0,1,0,0)"><path fill="url(#__lottie_element_37)" fill-opacity="1" d=" M-39.28900146484375,92.39901733398438 C89.61900329589844,162.40536499023438 208.76800537109375,222.4759979248047 448.6090087890625,222.4759979248047 C448.6090087890625,222.4759979248047 448.6090087890625,-222.4759979248047 448.6090087890625,-222.4759979248047 C355.822998046875,-219.28599548339844 203.63299560546875,-227.40863037109375 -39.28900146484375,-89.79122924804688 C-85.85299682617188,-63.41201400756836 -232.90699768066406,0.21699999272823334 -448.6090087890625,0.21699999272823334 C-343.6679992675781,4.566003322601318 -184.36399841308594,13.613259315490723 -39.28900146484375,92.39901733398438z"></path></g></g><g transform="matrix(1,0,0,1,1517.716064453125,626.8280029296875)" opacity="1" style="display: block;"><g opacity="1" transform="matrix(1,0,0,1,0,0)"><path fill="url(#__lottie_element_41)" fill-opacity="1" d=" M-39.28900146484375,51.90703582763672 C89.61900329589844,91.23410034179688 208.76800537109375,124.9520034790039 448.6090087890625,124.9520034790039 C448.6090087890625,124.9520034790039 448.6090087890625,-124.9520034790039 448.6090087890625,-124.9520034790039 C355.822998046875,-123.16100311279297 203.63299560546875,-127.75056457519531 -39.28900146484375,-50.44132995605469 C-85.85299682617188,-35.6224365234375 -232.90699768066406,0.12200000137090683 -448.6090087890625,0.12200000137090683 C-343.6679992675781,2.565000057220459 -184.36399841308594,7.647337913513184 -39.28900146484375,51.90703582763672z"></path></g></g><g transform="matrix(1,0,0,1,1517.716064453125,625.0640258789062)" opacity="1" style="display: block;"><path fill="url(#__lottie_element_45)" fill-opacity="1" d=" M-39.28900146484375,27.347999572753906 C89.61900329589844,48.06800079345703 208.76800537109375,65.8290023803711 448.6090087890625,65.8290023803711 C448.6090087890625,65.8290023803711 448.6090087890625,-65.8290023803711 448.6090087890625,-65.8290023803711 C355.822998046875,-64.88500213623047 203.63299560546875,-67.30799865722656 -39.28900146484375,-26.576000213623047 C-85.85299682617188,-18.76799964904785 -232.90699768066406,0.06400000303983688 -448.6090087890625,0.06400000303983688 C-343.6679992675781,1.3509999513626099 -184.36399841308594,4.0289998054504395 -39.28900146484375,27.347999572753906z"></path><g opacity="1" transform="matrix(1,0,0,1,0,0)"></g></g></g><g clip-path="url(#__lottie_element_78)" transform="matrix(1,0,0,1,0,0)" opacity="1" style="display: block;"><g transform="matrix(-1,0,0,1,23.92099952697754,606.10400390625)" opacity="1" style="display: block;"><g opacity="1" transform="matrix(1,0,0,1,0,0)"><path stroke="url(#__lottie_element_84)" stroke-linecap="butt" stroke-linejoin="miter" fill-opacity="0" stroke-miterlimit="4" stroke-opacity="1" stroke-width="6.095" d=" M35.145999908447266,19.29400062561035 C35.145999908447266,19.29400062561035 -220.16799926757812,18.895000457763672 -220.16799926757812,18.895000457763672 C-251.7220001220703,18.895000457763672 -259.7569885253906,-3.315999984741211 -268.0580139160156,-18.895000457763672 C-277.95599365234375,-3.5490000247955322 -291.9259948730469,18.895000457763672 -314.16900634765625,18.895000457763672 C-314.16900634765625,18.895000457763672 -460.6789855957031,18.895000457763672 -460.6789855957031,18.895000457763672 C-460.6789855957031,18.895000457763672 -1665.655029296875,19.315000534057617 -1665.655029296875,19.315000534057617"></path></g></g><g transform="matrix(1,0,0,1,1503.0869140625,625)" opacity="1" style="display: block;"><g opacity="1" transform="matrix(1,0,0,1,0,0)"><path fill="url(#__lottie_element_89)" fill-opacity="1" d=" M-40.676998138427734,236.64285278320312 C92.78500366210938,415.9017333984375 216.1439971923828,614.4000244140625 464.4570007324219,614.4000244140625 C464.4570007324219,614.4000244140625 464.4570007324219,-614.4000244140625 464.4570007324219,-614.4000244140625 C368.39300537109375,-605.5910034179688 210.82681274414062,-582.2596435546875 -40.676998138427734,-229.87423706054688 C-88.88600158691406,-162.3277130126953 -241.13499450683594,0.6010000109672546 -464.4570007324219,0.6010000109672546 C-355.8089904785156,12.61299991607666 -190.8769989013672,34.902915954589844 -40.676998138427734,236.64285278320312z"></path></g></g><g transform="matrix(1,0,0,1,1519.5419921875,625)" opacity="1" style="display: block;"><g opacity="1" transform="matrix(1,0,0,1,0,0)"><path fill="url(#__lottie_element_93)" fill-opacity="1" d=" M-39.23500061035156,187.46038818359375 C89.49800109863281,329.4548645019531 208.48500061035156,487.6189880371094 448,487.6189880371094 C448,487.6189880371094 448,-487.6189880371094 448,-487.6189880371094 C355.3399963378906,-480.62799072265625 203.35699462890625,-461.2101745605469 -39.23500061035156,-182.07846069335938 C-85.73600006103516,-128.57305908203125 -232.59100341796875,0.47699999809265137 -448,0.47699999809265137 C-343.2019958496094,10.010000228881836 -184.11300659179688,27.6578426361084 -39.23500061035156,187.46038818359375z"></path></g></g><g transform="matrix(1,0,0,1,1517.716064453125,624.3909912109375)" opacity="1" style="display: block;"><g opacity="1" transform="matrix(1,0,0,1,0,0)"><path fill="url(#__lottie_element_97)" fill-opacity="1" d=" M-39.28900146484375,136.41796875 C89.61900329589844,239.7049560546875 208.76800537109375,355.35198974609375 448.6090087890625,355.35198974609375 C448.6090087890625,355.35198974609375 448.6090087890625,-355.35198974609375 448.6090087890625,-355.35198974609375 C355.822998046875,-350.2569885253906 203.63299560546875,-335.4242858886719 -39.28900146484375,-132.38389587402344 C-85.85299682617188,-93.4645004272461 -232.90699768066406,0.34700000286102295 -448.6090087890625,0.34700000286102295 C-343.6679992675781,7.294000148773193 -184.36399841308594,20.17772674560547 -39.28900146484375,136.41796875z"></path></g></g><g transform="matrix(1,0,0,1,1517.716064453125,628.0479736328125)" opacity="1" style="display: block;"><g opacity="1" transform="matrix(1,0,0,1,0,0)"><path fill="url(#__lottie_element_101)" fill-opacity="1" d=" M-39.28900146484375,85.00682067871094 C89.61900329589844,149.5572052001953 208.76800537109375,222.4759979248047 448.6090087890625,222.4759979248047 C448.6090087890625,222.4759979248047 448.6090087890625,-222.4759979248047 448.6090087890625,-222.4759979248047 C355.822998046875,-219.28599548339844 203.63299560546875,-209.8764190673828 -39.28900146484375,-82.9837875366211 C-85.85299682617188,-58.66069030761719 -232.90699768066406,0.21699999272823334 -448.6090087890625,0.21699999272823334 C-343.6679992675781,4.566865921020508 -184.36399841308594,12.36095905303955 -39.28900146484375,85.00682067871094z"></path></g></g><g transform="matrix(1,0,0,1,1517.716064453125,626.8280029296875)" opacity="1" style="display: block;"><g opacity="1" transform="matrix(1,0,0,1,0,0)"><path fill="url(#__lottie_element_105)" fill-opacity="1" d=" M-39.28900146484375,47.67183303833008 C89.61900329589844,83.86461639404297 208.76800537109375,124.9520034790039 448.6090087890625,124.9520034790039 C448.6090087890625,124.9520034790039 448.6090087890625,-124.9520034790039 448.6090087890625,-124.9520034790039 C355.822998046875,-123.16100311279297 203.63299560546875,-117.66670227050781 -39.28900146484375,-46.519290924072266 C-85.85299682617188,-32.881595611572266 -232.90699768066406,0.12200000137090683 -448.6090087890625,0.12200000137090683 C-343.6679992675781,2.565000057220459 -184.36399841308594,6.939853191375732 -39.28900146484375,47.67183303833008z"></path></g></g><g transform="matrix(1,0,0,1,1517.716064453125,625.0640258789062)" opacity="1" style="display: block;"><path fill="url(#__lottie_element_109)" fill-opacity="1" d=" M-39.28900146484375,25.175373077392578 C89.61900329589844,44.21194839477539 208.76800537109375,65.8290023803711 448.6090087890625,65.8290023803711 C448.6090087890625,65.8290023803711 448.6090087890625,-65.8290023803711 448.6090087890625,-65.8290023803711 C355.822998046875,-64.88500213623047 203.63299560546875,-61.7910041809082 -39.28900146484375,-24.368301391601562 C-85.85299682617188,-17.1951847076416 -232.90699768066406,0.06400000303983688 -448.6090087890625,0.06400000303983688 C-343.6679992675781,1.3509999513626099 -184.36399841308594,3.751126766204834 -39.28900146484375,25.175373077392578z"></path><g opacity="1" transform="matrix(1,0,0,1,0,0)"></g></g><g clip-path="url(#__lottie_element_111)" transform="matrix(1,0,0,1,1503.0869140625,625)" opacity="0.32" style="display: none;"><g opacity="1" transform="matrix(0.9945219159126282,-0.10452846437692642,0.10452846437692642,0.9945219159126282,1494,0)"><path fill="url(#__lottie_element_113)" mask="url(#__lottie_element_115)" fill-opacity="1" d="M0 0 M1000,-800 C1000,-800 1000,800 1000,800 C1000,800 -1000,800 -1000,800 C-1000,800 -1000,-800 -1000,-800 C-1000,-800 1000,-800 1000,-800z"></path></g></g><g clip-path="url(#__lottie_element_117)" transform="matrix(1,0,0,1,1503.0869140625,625)" opacity="0.15" style="display: block;"><g opacity="1" transform="matrix(0.9945219159126282,-0.10452846437692642,0.10452846437692642,0.9945219159126282,1489.2945556640625,0)"><path fill="url(#__lottie_element_119)" mask="url(#__lottie_element_121)" fill-opacity="1" d="M0 0 M1000,-800 C1000,-800 1000,800 1000,800 C1000,800 -1000,800 -1000,800 C-1000,800 -1000,-800 -1000,-800 C-1000,-800 1000,-800 1000,-800z"></path></g></g></g></g></svg>